<mxfile host="app.diagrams.net" modified="2022-01-30T15:07:26.732Z" agent="5.0 (X11; Linux x86_64) AppleWebKit/537.36 (KHTML, like Gecko) Chrome/96.0.4664.110 Safari/537.36" etag="d6ByHQFUgk36vPEFTQRJ" version="16.2.4" type="github">
  <diagram id="UbNqxVZC1guhLLcriv7x" name="Page-1">
    <mxGraphModel dx="463" dy="638" grid="1" gridSize="10" guides="1" tooltips="1" connect="1" arrows="1" fold="1" page="1" pageScale="1" pageWidth="1600" pageHeight="900" background="#ffffff" math="0" shadow="0">
      <root>
        <mxCell id="0" />
        <mxCell id="1" parent="0" />
        <mxCell id="quhVEy0Gu2fzXFc143Mp-4" style="edgeStyle=orthogonalEdgeStyle;rounded=0;orthogonalLoop=1;jettySize=auto;html=1;exitX=0.25;exitY=0;exitDx=0;exitDy=0;entryX=0.25;entryY=1;entryDx=0;entryDy=0;fontSize=15;fillColor=#dae8fc;strokeColor=#6c8ebf;" parent="1" source="s_u18fh8TWqF_D3X__ss-1" target="quhVEy0Gu2fzXFc143Mp-1" edge="1">
          <mxGeometry relative="1" as="geometry" />
        </mxCell>
        <mxCell id="quhVEy0Gu2fzXFc143Mp-5" value="(A)" style="edgeLabel;html=1;align=center;verticalAlign=middle;resizable=0;points=[];fontSize=15;fontColor=#0066CC;" parent="quhVEy0Gu2fzXFc143Mp-4" vertex="1" connectable="0">
          <mxGeometry x="0.5833" y="-1" relative="1" as="geometry">
            <mxPoint y="23" as="offset" />
          </mxGeometry>
        </mxCell>
        <mxCell id="s_u18fh8TWqF_D3X__ss-1" value="&lt;b style=&quot;font-size: 15px;&quot;&gt;Client&lt;/b&gt;" style="rounded=0;whiteSpace=wrap;html=1;fillColor=#dae8fc;strokeColor=#6c8ebf;fontSize=15;fontFamily=Roboto;fontSource=https%3A%2F%2Ffonts.googleapis.com%2Fcss%3Ffamily%3DRoboto;" parent="1" vertex="1">
          <mxGeometry x="80" y="640" width="120" height="100" as="geometry" />
        </mxCell>
        <mxCell id="s_u18fh8TWqF_D3X__ss-2" value="&lt;b style=&quot;font-size: 15px;&quot;&gt;Resource&lt;br style=&quot;font-size: 15px;&quot;&gt;Owner&lt;br style=&quot;font-size: 15px;&quot;&gt;&lt;/b&gt;" style="rounded=0;whiteSpace=wrap;html=1;fillColor=#d5e8d4;strokeColor=#82b366;fontSize=15;fontFamily=Roboto;fontSource=https%3A%2F%2Ffonts.googleapis.com%2Fcss%3Ffamily%3DRoboto;" parent="1" vertex="1">
          <mxGeometry x="80" y="60" width="120" height="100" as="geometry" />
        </mxCell>
        <mxCell id="s_u18fh8TWqF_D3X__ss-4" value="&lt;b style=&quot;font-size: 15px;&quot;&gt;Authorization&lt;br style=&quot;font-size: 15px;&quot;&gt;Server&lt;br style=&quot;font-size: 15px;&quot;&gt;&lt;/b&gt;" style="rounded=0;whiteSpace=wrap;html=1;fillColor=#f8cecc;strokeColor=#b85450;fontSize=15;fontFamily=Roboto;fontSource=https%3A%2F%2Ffonts.googleapis.com%2Fcss%3Ffamily%3DRoboto;" parent="1" vertex="1">
          <mxGeometry x="500" y="240" width="120" height="160" as="geometry" />
        </mxCell>
        <mxCell id="quhVEy0Gu2fzXFc143Mp-6" style="edgeStyle=orthogonalEdgeStyle;rounded=0;orthogonalLoop=1;jettySize=auto;html=1;entryX=0.5;entryY=1;entryDx=0;entryDy=0;fontSize=15;startArrow=classic;startFill=1;fillColor=#d5e8d4;strokeColor=#82b366;" parent="1" source="quhVEy0Gu2fzXFc143Mp-1" target="s_u18fh8TWqF_D3X__ss-2" edge="1">
          <mxGeometry relative="1" as="geometry" />
        </mxCell>
        <mxCell id="quhVEy0Gu2fzXFc143Mp-7" value="(B)" style="edgeLabel;html=1;align=center;verticalAlign=middle;resizable=0;points=[];fontSize=15;fontColor=#009900;" parent="quhVEy0Gu2fzXFc143Mp-6" vertex="1" connectable="0">
          <mxGeometry x="-0.125" relative="1" as="geometry">
            <mxPoint y="-5" as="offset" />
          </mxGeometry>
        </mxCell>
        <mxCell id="quhVEy0Gu2fzXFc143Mp-12" style="edgeStyle=orthogonalEdgeStyle;rounded=0;orthogonalLoop=1;jettySize=auto;html=1;entryX=0.75;entryY=0;entryDx=0;entryDy=0;fontSize=15;startArrow=none;startFill=0;fillColor=#f8cecc;strokeColor=#b85450;" parent="1" source="quhVEy0Gu2fzXFc143Mp-1" target="s_u18fh8TWqF_D3X__ss-1" edge="1">
          <mxGeometry relative="1" as="geometry">
            <Array as="points">
              <mxPoint x="170" y="360" />
              <mxPoint x="170" y="360" />
            </Array>
          </mxGeometry>
        </mxCell>
        <mxCell id="quhVEy0Gu2fzXFc143Mp-13" value="(F) Access Token" style="edgeLabel;html=1;align=center;verticalAlign=middle;resizable=0;points=[];fontSize=15;fontColor=#CC0000;" parent="quhVEy0Gu2fzXFc143Mp-12" vertex="1" connectable="0">
          <mxGeometry x="-0.3" relative="1" as="geometry">
            <mxPoint x="20" y="12" as="offset" />
          </mxGeometry>
        </mxCell>
        <mxCell id="_CfRLG04j-PLwJy_zdju-4" style="edgeStyle=orthogonalEdgeStyle;rounded=0;orthogonalLoop=1;jettySize=auto;html=1;entryX=0;entryY=0.25;entryDx=0;entryDy=0;fillColor=#dae8fc;strokeColor=#6c8ebf;" edge="1" parent="1" source="quhVEy0Gu2fzXFc143Mp-1" target="s_u18fh8TWqF_D3X__ss-4">
          <mxGeometry relative="1" as="geometry">
            <Array as="points">
              <mxPoint x="270" y="280" />
              <mxPoint x="270" y="280" />
            </Array>
          </mxGeometry>
        </mxCell>
        <mxCell id="_CfRLG04j-PLwJy_zdju-5" value="&lt;span style=&quot;color: rgb(0 , 102 , 204) ; font-size: 15px&quot;&gt;(A) client_id and redirect_uri&lt;/span&gt;" style="edgeLabel;html=1;align=center;verticalAlign=middle;resizable=0;points=[];" vertex="1" connectable="0" parent="_CfRLG04j-PLwJy_zdju-4">
          <mxGeometry x="-0.4143" y="-1" relative="1" as="geometry">
            <mxPoint x="58" as="offset" />
          </mxGeometry>
        </mxCell>
        <mxCell id="_CfRLG04j-PLwJy_zdju-6" style="edgeStyle=orthogonalEdgeStyle;rounded=0;orthogonalLoop=1;jettySize=auto;html=1;entryX=0;entryY=0.5;entryDx=0;entryDy=0;fillColor=#d5e8d4;strokeColor=#82b366;" edge="1" parent="1" source="quhVEy0Gu2fzXFc143Mp-1" target="s_u18fh8TWqF_D3X__ss-4">
          <mxGeometry relative="1" as="geometry">
            <Array as="points">
              <mxPoint x="270" y="320" />
              <mxPoint x="270" y="320" />
            </Array>
          </mxGeometry>
        </mxCell>
        <mxCell id="_CfRLG04j-PLwJy_zdju-7" value="&lt;span style=&quot;color: rgb(0 , 153 , 0) ; font-size: 15px&quot;&gt;(B) User authenticates&lt;/span&gt;" style="edgeLabel;html=1;align=center;verticalAlign=middle;resizable=0;points=[];" vertex="1" connectable="0" parent="_CfRLG04j-PLwJy_zdju-6">
          <mxGeometry x="-0.3185" y="3" relative="1" as="geometry">
            <mxPoint x="45" y="3" as="offset" />
          </mxGeometry>
        </mxCell>
        <mxCell id="_CfRLG04j-PLwJy_zdju-9" style="edgeStyle=orthogonalEdgeStyle;rounded=0;orthogonalLoop=1;jettySize=auto;html=1;entryX=0;entryY=0.75;entryDx=0;entryDy=0;startArrow=classic;startFill=1;endArrow=none;endFill=0;fillColor=#f8cecc;strokeColor=#b85450;" edge="1" parent="1" source="quhVEy0Gu2fzXFc143Mp-1" target="s_u18fh8TWqF_D3X__ss-4">
          <mxGeometry relative="1" as="geometry">
            <Array as="points">
              <mxPoint x="270" y="360" />
              <mxPoint x="270" y="360" />
            </Array>
          </mxGeometry>
        </mxCell>
        <mxCell id="_CfRLG04j-PLwJy_zdju-10" value="&lt;font style=&quot;font-size: 15px&quot;&gt;(C) Redirection URI w/ Access Token&lt;/font&gt;" style="edgeLabel;html=1;align=center;verticalAlign=middle;resizable=0;points=[];fontFamily=Roboto;fontSource=https%3A%2F%2Ffonts.googleapis.com%2Fcss%3Ffamily%3DRoboto;fontColor=#CC0000;" vertex="1" connectable="0" parent="_CfRLG04j-PLwJy_zdju-9">
          <mxGeometry x="-0.3185" y="1" relative="1" as="geometry">
            <mxPoint x="50" as="offset" />
          </mxGeometry>
        </mxCell>
        <mxCell id="_CfRLG04j-PLwJy_zdju-11" style="edgeStyle=orthogonalEdgeStyle;rounded=0;orthogonalLoop=1;jettySize=auto;html=1;entryX=0;entryY=0.25;entryDx=0;entryDy=0;fontFamily=Roboto;fontSource=https%3A%2F%2Ffonts.googleapis.com%2Fcss%3Ffamily%3DRoboto;fontSize=15;fontColor=#CC0000;startArrow=none;startFill=0;endArrow=classic;endFill=1;fillColor=#ffe6cc;strokeColor=#d79b00;" edge="1" parent="1" source="quhVEy0Gu2fzXFc143Mp-1" target="_CfRLG04j-PLwJy_zdju-1">
          <mxGeometry relative="1" as="geometry">
            <Array as="points">
              <mxPoint x="280" y="470" />
              <mxPoint x="280" y="470" />
            </Array>
          </mxGeometry>
        </mxCell>
        <mxCell id="_CfRLG04j-PLwJy_zdju-12" value="(D) Redirection URI w/out Access Token" style="edgeLabel;html=1;align=center;verticalAlign=middle;resizable=0;points=[];fontSize=15;fontFamily=Roboto;fontColor=#CC6600;" vertex="1" connectable="0" parent="_CfRLG04j-PLwJy_zdju-11">
          <mxGeometry x="-0.7268" relative="1" as="geometry">
            <mxPoint x="102" as="offset" />
          </mxGeometry>
        </mxCell>
        <mxCell id="_CfRLG04j-PLwJy_zdju-14" style="edgeStyle=orthogonalEdgeStyle;rounded=0;orthogonalLoop=1;jettySize=auto;html=1;entryX=0;entryY=0.75;entryDx=0;entryDy=0;fontFamily=Roboto;fontSource=https%3A%2F%2Ffonts.googleapis.com%2Fcss%3Ffamily%3DRoboto;fontSize=15;fontColor=#CC6600;startArrow=classic;startFill=1;endArrow=none;endFill=0;fillColor=#ffe6cc;strokeColor=#d79b00;" edge="1" parent="1" source="quhVEy0Gu2fzXFc143Mp-1" target="_CfRLG04j-PLwJy_zdju-1">
          <mxGeometry relative="1" as="geometry">
            <Array as="points">
              <mxPoint x="280" y="530" />
              <mxPoint x="280" y="530" />
            </Array>
          </mxGeometry>
        </mxCell>
        <mxCell id="_CfRLG04j-PLwJy_zdju-15" value="(E) Script" style="edgeLabel;html=1;align=center;verticalAlign=middle;resizable=0;points=[];fontSize=15;fontFamily=Roboto;fontColor=#CC6600;" vertex="1" connectable="0" parent="_CfRLG04j-PLwJy_zdju-14">
          <mxGeometry x="-0.7283" y="2" relative="1" as="geometry">
            <mxPoint x="119" y="2" as="offset" />
          </mxGeometry>
        </mxCell>
        <mxCell id="quhVEy0Gu2fzXFc143Mp-1" value="&lt;b style=&quot;font-size: 15px&quot;&gt;User&lt;br&gt;Agent&lt;br&gt;&lt;/b&gt;" style="rounded=0;whiteSpace=wrap;html=1;fillColor=#e1d5e7;strokeColor=#9673a6;fontSize=15;fontFamily=Roboto;fontSource=https%3A%2F%2Ffonts.googleapis.com%2Fcss%3Ffamily%3DRoboto;" parent="1" vertex="1">
          <mxGeometry x="80" y="240" width="120" height="320" as="geometry" />
        </mxCell>
        <mxCell id="_CfRLG04j-PLwJy_zdju-1" value="&lt;b style=&quot;font-size: 15px&quot;&gt;Web-Hosted&lt;br&gt;Client Resource&lt;br style=&quot;font-size: 15px&quot;&gt;&lt;/b&gt;" style="rounded=0;whiteSpace=wrap;html=1;fillColor=#ffe6cc;strokeColor=#d79b00;fontSize=15;fontFamily=Roboto;fontSource=https%3A%2F%2Ffonts.googleapis.com%2Fcss%3Ffamily%3DRoboto;" vertex="1" parent="1">
          <mxGeometry x="500" y="440" width="120" height="120" as="geometry" />
        </mxCell>
      </root>
    </mxGraphModel>
  </diagram>
</mxfile>
